<?xml version="1.0" standalone="no"?>
<!DOCTYPE svg PUBLIC "-//W3C//DTD SVG 20010904//EN"
 "http://www.w3.org/TR/2001/REC-SVG-20010904/DTD/svg10.dtd">
<svg version="1.0" xmlns="http://www.w3.org/2000/svg"
 width="1280.000000pt" height="1280.000000pt" viewBox="0 0 1280.000000 1280.000000"
 preserveAspectRatio="xMidYMid meet">
<g transform="translate(0.000000,1280.000000) scale(0.100000,-0.100000)"
fill="#000000" stroke="none">
<path d="M6150 12790 c-41 -4 -145 -13 -230 -20 -137 -10 -328 -31 -415 -45
-294 -46 -504 -90 -746 -154 -768 -206 -1495 -553 -2139 -1021 -512 -371 -997
-856 -1370 -1370 -692 -952 -1120 -2094 -1215 -3238 -8 -103 -20 -237 -25
-298 -13 -141 -13 -347 0 -488 5 -61 17 -195 25 -298 95 -1144 523 -2286 1215
-3238 373 -514 858 -999 1370 -1370 967 -703 2119 -1129 3295 -1220 77 -6 187
-15 245 -20 134 -13 346 -13 480 0 58 5 168 14 245 20 1273 99 2529 596 3525
1395 423 340 825 761 1140 1195 692 952 1120 2094 1215 3238 8 103 20 237 25
298 6 60 10 170 10 244 0 74 -4 184 -10 244 -5 61 -17 195 -25 298 -95 1144
-523 2286 -1215 3238 -373 514 -858 999 -1370 1370 -967 703 -2119 1129 -3295
1220 -77 6 -187 15 -245 20 -120 11 -379 11 -490 0z m6 -1473 c476 -939 1364
-2661 2160 -4187 546 -1048 996 -1913 999 -1923 5 -12 2 -17 -11 -17 -10 0
-694 204 -1519 452 l-1500 453 -95 0 c-81 0 -103 -4 -145 -24 -137 -68 -218
-231 -185 -376 6 -27 470 -1069 1032 -2315 561 -1246 1023 -2271 1025 -2277 3
-7 -1 -13 -8 -12 -8 0 -163 190 -345 422 -182 232 -1209 1539 -2282 2904
-1074 1365 -1952 2487 -1952 2493 0 5 5 10 10 10 6 0 790 -146 1743 -324 952
-178 1748 -326 1767 -329 46 -6 145 10 184 30 135 68 211 217 186 363 -5 30
-263 1109 -574 2397 -311 1289 -566 2352 -566 2364 0 35 17 12 76 -104z"/>
</g>
</svg>
