<?xml version="1.0" standalone="no"?>
<!DOCTYPE svg PUBLIC "-//W3C//DTD SVG 20010904//EN"
 "http://www.w3.org/TR/2001/REC-SVG-20010904/DTD/svg10.dtd">
<svg version="1.0" xmlns="http://www.w3.org/2000/svg"
 width="1002.000000pt" height="653.000000pt" viewBox="0 0 1002.000000 653.000000"
 preserveAspectRatio="xMidYMid meet">

<g transform="translate(0.000000,653.000000) scale(0.100000,-0.100000)"
fill="#000000" stroke="none">
<path d="M3017 3843 c-20 -16 -142 -104 -272 -198 l-235 -170 71 -5 72 -5
-137 -162 -137 -163 70 0 c43 0 71 -4 71 -10 0 -6 -40 -64 -88 -128 -49 -64
-114 -152 -145 -194 l-56 -77 113 82 c62 45 188 136 279 202 l165 120 -69 3
c-38 2 -69 6 -69 10 1 4 61 77 134 162 l134 155 -69 3 c-38 2 -69 7 -69 13 0
8 127 185 246 342 20 26 34 47 31 47 -2 0 -20 -12 -40 -27z"/>
<path d="M3226 3671 l-269 -196 67 -3 c36 -2 66 -7 66 -11 0 -5 -59 -78 -131
-162 l-130 -154 74 -5 74 -5 -148 -197 c-81 -109 -146 -198 -143 -198 2 0 126
89 276 198 l272 197 -71 5 -72 5 135 160 135 160 -71 3 c-51 2 -70 6 -67 15 2
7 66 95 142 195 75 101 135 185 134 186 -2 2 -125 -85 -273 -193z"/>
<path d="M3769 3743 c-96 -69 -186 -136 -200 -147 -15 -12 -59 -43 -99 -71
l-71 -50 70 -3 c39 -2 71 -5 71 -9 0 -3 -37 -49 -83 -102 -45 -53 -107 -124
-136 -158 l-53 -63 76 0 c42 0 76 -2 76 -4 0 -4 -165 -226 -267 -361 l-38 -50
65 48 c36 26 163 118 284 204 l219 158 -72 3 c-39 2 -71 5 -71 8 0 3 22 31 49
62 27 31 88 102 135 157 l85 100 -75 3 -75 3 23 32 c23 32 243 331 261 355 5
6 8 12 5 12 -2 0 -83 -57 -179 -127z"/>
<path d="M4570 3749 c-131 -26 -209 -110 -210 -227 0 -135 65 -188 304 -248
163 -41 212 -78 222 -169 8 -73 -24 -132 -91 -165 -41 -20 -65 -25 -130 -25
-44 0 -96 6 -116 13 -65 23 -123 93 -132 158 -3 26 -8 29 -42 32 l-38 3 6 -51
c12 -96 92 -183 197 -211 62 -16 188 -14 252 5 130 38 204 171 168 300 -25 91
-96 135 -300 186 -69 17 -141 42 -161 55 -88 57 -88 183 0 242 75 51 187 58
268 17 56 -27 86 -66 97 -127 6 -34 10 -37 41 -37 33 0 35 2 35 33 -1 68 -57
150 -130 187 -36 18 -137 41 -174 39 -12 -1 -41 -5 -66 -10z"/>
<path d="M5157 3734 c-4 -4 -7 -200 -7 -436 l0 -428 40 0 40 0 -2 433 -3 432
-30 3 c-17 2 -34 0 -38 -4z"/>
<path d="M5467 3734 c-4 -4 -7 -200 -7 -436 l0 -428 40 0 40 0 0 388 c1 275 4
382 11 369 6 -10 22 -50 35 -90 14 -40 29 -81 34 -92 6 -11 23 -56 39 -100 25
-70 62 -169 153 -413 l23 -63 38 3 39 3 67 180 c37 99 100 271 141 383 l75
203 3 -386 2 -385 40 0 40 0 -2 433 -3 432 -56 3 -56 3 -53 -143 c-29 -79 -67
-183 -85 -233 -40 -108 -134 -364 -141 -384 -7 -20 -16 -7 -40 57 -11 31 -53
145 -93 252 -40 107 -77 204 -82 215 -5 11 -26 67 -47 125 l-37 105 -56 3
c-30 2 -58 0 -62 -4z"/>
<path d="M6480 3305 l0 -435 295 0 295 0 0 30 0 30 -255 0 -255 0 0 175 0 175
203 2 c111 1 211 2 222 2 15 1 21 9 23 34 l3 32 -225 0 -226 0 0 160 0 160
251 0 250 0 -3 33 -3 32 -287 3 -288 2 0 -435z"/>
<path d="M7227 3733 c-4 -3 -7 -199 -7 -435 l0 -428 40 0 40 0 0 195 0 195
171 0 c250 0 263 -9 279 -207 5 -65 12 -133 16 -150 6 -31 9 -33 50 -33 49 0
48 -1 34 35 -5 14 -14 81 -19 149 -11 138 -31 196 -80 224 l-28 16 45 30 c27
19 56 49 70 76 21 39 23 55 20 123 -4 67 -9 82 -34 115 -43 54 -106 81 -210
92 -103 11 -377 13 -387 3z m467 -88 c22 -11 49 -32 59 -47 28 -38 34 -125 12
-172 -36 -76 -101 -96 -314 -96 l-151 0 0 171 0 171 178 -4 c153 -3 182 -6
216 -23z"/>
</g>
</svg>
